<?xml version="1.0" encoding="UTF-8"?>
<svg version="1.1" xmlns="http://www.w3.org/2000/svg" width="718" height="310">
<path d="M0 0 C236.94 0 473.88 0 718 0 C718 102.3 718 204.6 718 310 C481.06 310 244.12 310 0 310 C0 207.7 0 105.4 0 0 Z " fill="#1E1E1E" transform="translate(0,0)"/>
<path d="M0 0 C1.32 0.33 2.64 0.66 4 1 C3.43124784 6.40952362 2.08415392 10.93244566 0.05078125 15.9609375 C-0.24431839 16.70977203 -0.53941803 17.45860657 -0.84346008 18.23013306 C-1.78435467 20.61464851 -2.73525654 22.99499663 -3.6875 25.375 C-4.92482569 28.485306 -6.1574633 31.59743351 -7.38671875 34.7109375 C-7.83916458 35.85523224 -7.83916458 35.85523224 -8.30075073 37.02264404 C-11.40958559 44.94183776 -14.22957218 52.95723593 -17 61 C-15.02 61.495 -15.02 61.495 -13 62 C-13.33 63.65 -13.66 65.3 -14 67 C-15.65 67.33 -17.3 67.66 -19 68 C-27.02192182 94.13483912 -34.24572131 119.37266956 -33 147 C-29.21257721 145.69976643 -26.85113893 144.22035724 -24.046875 141.375 C-23.345625 140.66859375 -22.644375 139.9621875 -21.921875 139.234375 C-21.20515625 138.49703125 -20.4884375 137.7596875 -19.75 137 C-19.0178125 136.26265625 -18.285625 135.5253125 -17.53125 134.765625 C-13.8281203 131.2077079 -13.8281203 131.2077079 -11 127 C-9.02 127.495 -9.02 127.495 -7 128 C-7.88930003 137.76795674 -16.89616544 145.71927977 -24 152 C-26.85651254 154.15980216 -28.46255482 154.92162258 -32 155.4375 C-35.77306522 154.88726132 -37.32400737 153.67599263 -40 151 C-42.67160326 147.13470167 -42.44453069 142.78429146 -42.625 138.25 C-42.68300781 137.06083984 -42.68300781 137.06083984 -42.7421875 135.84765625 C-42.836108 133.89880584 -42.91912822 131.94943549 -43 130 C-43.4125 130.556875 -43.825 131.11375 -44.25 131.6875 C-51.48972197 141.25427546 -59.27433963 150.09144654 -71 154 C-75.75762559 154.457464 -79.30310783 154.05743352 -83.42578125 151.47265625 C-88.01618942 147.17840345 -89.7724232 139.96969066 -90.23828125 133.890625 C-90.50339585 120.88605625 -88.07980306 108.61962361 -82 97 C-81.484375 95.97261719 -80.96875 94.94523437 -80.4375 93.88671875 C-76.88840631 87.01827181 -73.09908138 80.8180408 -68 75 C-67.09314453 73.95199219 -67.09314453 73.95199219 -66.16796875 72.8828125 C-58.24989923 64.33581282 -47.22912525 58.41145626 -35.484375 57.82421875 C-32.31604462 57.81393196 -29.16521278 57.86604899 -26 58 C-25.90203125 57.03578125 -25.8040625 56.0715625 -25.703125 55.078125 C-25.03051273 50.39806061 -23.42537846 46.15271824 -21.75 41.75 C-21.43353516 40.90808105 -21.11707031 40.06616211 -20.79101562 39.19873047 C-15.54065553 25.37792963 -9.47221914 11.48463199 0 0 Z " fill="#F7F7F7" transform="translate(401,68)"/>
<path d="M0 0 C0.66015625 1.80859375 0.66015625 1.80859375 1 4 C-3.47086333 9.34322691 -8.97467623 13.42671409 -14.46118164 17.67016602 C-18.56546121 20.84741199 -22.56121441 24.12027564 -26.5 27.5 C-30.87108733 31.24607758 -35.32321179 34.85099385 -39.875 38.375 C-50.26261537 46.44037007 -60.06648139 55.19615283 -69.80859375 64.0234375 C-71.85538796 65.86956561 -73.92131557 67.68993284 -76 69.5 C-84.28307721 76.72284333 -92.3753554 84.15802493 -100.46777344 91.59277344 C-103.47311608 94.35293835 -106.48197802 97.10926713 -109.49072266 99.86572266 C-112.04322703 102.20461437 -114.59368566 104.54567341 -117.140625 106.890625 C-122.10639914 111.45944733 -127.07780361 116.01674988 -132.18359375 120.4296875 C-133.45529868 121.52909692 -134.71759474 122.63944086 -135.97265625 123.7578125 C-136.60042969 124.31210938 -137.22820312 124.86640625 -137.875 125.4375 C-138.70644531 126.17806641 -138.70644531 126.17806641 -139.5546875 126.93359375 C-141 128 -141 128 -143 128 C-143 128.66 -143 129.32 -143 130 C-142.14019531 129.95359375 -141.28039062 129.9071875 -140.39453125 129.859375 C-121.85366746 129.29324175 -106.10315686 138.04944568 -89.82421875 146.0078125 C-60.21661148 160.47875492 -26.20054374 173.7564174 7 163 C7.95003906 162.73316406 8.90007812 162.46632812 9.87890625 162.19140625 C16.81204557 160.11423402 23.10607155 157.10676552 29.48168945 153.72973633 C32.97352741 151.9001792 36.07256516 150.50700989 40 150 C40.33 151.65 40.66 153.3 41 155 C14.67609179 173.39753332 -14.86945235 179.2097209 -46.75 173.875 C-59.9922622 170.80474636 -72.45283093 166.08223112 -84.65234375 160.13232422 C-116.22924941 142.32992799 -116.22924941 142.32992799 -150.6640625 139.8984375 C-152.18383949 140.59644583 -153.68633231 141.33456928 -155.16015625 142.125 C-157 143 -157 143 -160 143 C-160.82920837 140.87277222 -160.82920837 140.87277222 -161 138 C-159.31582468 135.73281131 -157.74511711 133.97518791 -155.73266602 132.03564453 C-155.16044815 131.46094421 -154.58823029 130.8862439 -153.99867249 130.29412842 C-152.09778633 128.39232202 -150.17636366 126.51279096 -148.25390625 124.6328125 C-146.92519155 123.31275587 -145.59772937 121.99143739 -144.27146912 120.66891479 C-140.76798143 117.18268634 -137.24642596 113.7152561 -133.72125244 110.25097656 C-130.86468962 107.43778433 -128.02097419 104.61180771 -125.17794895 101.78494453 C-121.76995079 98.39667603 -118.35662052 95.01380603 -114.94140625 91.6328125 C-114.29683535 90.9946674 -113.65226444 90.35652229 -112.98816109 89.69903946 C-106.48243386 83.2680626 -99.96549882 76.93659403 -93 71 C-91.5837356 69.69831245 -90.17509037 68.38817128 -88.78125 67.0625 C-87.72357422 66.06089844 -87.72357422 66.06089844 -86.64453125 65.0390625 C-85.93683594 64.36617188 -85.22914062 63.69328125 -84.5 63 C-79.10483921 57.87017499 -73.6345176 52.86585018 -68 48 C-66.79794501 46.95339148 -65.59611666 45.9065226 -64.39453125 44.859375 C-60.60307921 41.56511972 -56.80242786 38.28157395 -53 35 C-52.41460449 34.4932373 -51.82920898 33.98647461 -51.22607422 33.46435547 C-49.57130971 32.0340948 -47.91147502 30.60995581 -46.25 29.1875 C-45.30640625 28.37667969 -44.3628125 27.56585938 -43.390625 26.73046875 C-38.78266076 22.90992252 -33.86218121 19.48593854 -29 16 C-29.8564209 15.97494385 -30.7128418 15.9498877 -31.59521484 15.92407227 C-34.8195903 15.82805946 -38.04385001 15.72888907 -41.26806641 15.62768555 C-42.65474749 15.58478359 -44.0414664 15.54308451 -45.42822266 15.50268555 C-58.4325513 15.12241456 -58.4325513 15.12241456 -63.99609375 14.484375 C-70.1827123 13.80076008 -76.38420727 13.7405827 -82.60229492 13.70483398 C-83.98358433 13.69335154 -85.36483069 13.6729588 -86.74584961 13.64331055 C-103.97168656 13.27593001 -119.01869784 16.9922955 -132 29 C-132.66 29.99 -133.32 30.98 -134 32 C-135.32 31.67 -136.64 31.34 -138 31 C-137.04731956 24.20186056 -132.85333346 20.42358446 -127.76953125 16.10546875 C-107.70281047 1.07997962 -82.55666379 3.77399187 -58.875 4 C-53.86498546 4.04772779 -48.85510484 4.08831449 -43.84491348 4.11187744 C-41.87439078 4.12455167 -39.90396041 4.14969391 -37.93356323 4.17529297 C-28.21891104 4.22752956 -18.34936981 3.74825125 -9 0.875 C-5.85812268 -0.04138088 -3.25456436 -0.15875924 0 0 Z " fill="#F8F8F8" transform="translate(208,73)"/>
<path d="M0 0 C0.89203125 0.00902344 1.7840625 0.01804688 2.703125 0.02734375 C3.37859375 0.03894531 4.0540625 0.05054688 4.75 0.0625 C3.75670684 5.73472672 2.45204036 11.2283296 0.8125 16.75 C-2.14267181 26.89461964 -4.54931023 37.08869513 -4.6484375 47.6953125 C-5.53872589 51.19865513 -7.59590843 52.64608828 -10.25 55.0625 C-11.32280793 56.14604272 -12.38887936 57.23628399 -13.44921875 58.33203125 C-30.67757556 75.87988683 -30.67757556 75.87988683 -38.25 79.0625 C-40.8125 79 -40.8125 79 -43.25 78.0625 C-46.45341036 73.9889325 -46.75909154 70.19947622 -46.6875 65.1875 C-46.67992676 64.44008545 -46.67235352 63.6926709 -46.66455078 62.92260742 C-46.12426072 44.27076898 -37.70816933 25.22510561 -24.98828125 11.6484375 C-17.74106633 4.89448851 -10.09434856 -0.13282038 0 0 Z " fill="#202020" transform="translate(367.25,132.9375)"/>
<path d="M0 0 C8.23072467 0.43319604 14.18238793 2.73095171 19.875 8.8125 C26.55022463 17.1147156 25.62396374 26.80360756 24.60546875 36.91796875 C21.94976015 56.65214382 12.92127271 78.43038788 -2 92 C-10.50808863 98.37795224 -18.53109332 102.75350602 -29.32421875 102.41015625 C-35.71694722 101.43024897 -40.69817706 97.17132923 -44.61328125 92.18359375 C-51.39045893 81.51192524 -52.44963365 70.5480678 -50.59375 58.32421875 C-45.57672336 38.68519998 -31.8160213 21.33771739 -14.6875 10.9375 C-10.75767459 8.65895184 -7.51645607 7.54037362 -3 7 C-2.505 8.98 -2.505 8.98 -2 11 C-2.61746094 11.42410156 -3.23492187 11.84820312 -3.87109375 12.28515625 C-22.20312704 24.98085662 -36.57224848 39.63661994 -42 62 C-43.20826782 70.81388223 -41.6661105 78.42566163 -36.76171875 85.8828125 C-33.28201911 90.34286096 -30.8788022 91.74085487 -25.375 92.5 C-17.88713824 92.2633947 -11.84347079 87.21202328 -6.875 82 C-2.03409854 76.19091825 1.50543295 69.66598059 5 63 C5.48597656 62.09378906 5.97195313 61.18757813 6.47265625 60.25390625 C11.90444994 49.34048591 14.32384201 37.44741186 14.5 25.3125 C14.52767456 24.19959595 14.52767456 24.19959595 14.5559082 23.06420898 C14.49633116 17.89752301 13.36835133 14.89394977 10 11 C7.2517305 9.04447028 7.2517305 9.04447028 4.25 7.625 C3.26515625 7.12226562 2.2803125 6.61953125 1.265625 6.1015625 C0.14414062 5.55628906 0.14414062 5.55628906 -1 5 C-1 1 -1 1 0 0 Z " fill="#F7F7F7" transform="translate(281,120)"/>
<path d="M0 0 C5.72040102 4.60810082 5.72040102 4.60810082 6.70703125 8.71484375 C7.35081368 16.99418528 3.16277611 24.15118924 -1.84765625 30.44921875 C-10.0011956 39.12001102 -24.13412315 51.02475868 -36.515625 52.0390625 C-38.94479264 52.05941865 -41.3284659 51.99449421 -43.75 51.8125 C-44.08 50.1625 -44.41 48.5125 -44.75 46.8125 C-43.491875 46.461875 -42.23375 46.11125 -40.9375 45.75 C-27.48454241 41.18860657 -12.89699449 29.18051319 -5.75 16.8125 C-4.99691527 14.32823878 -4.80572783 12.43170819 -4.75 9.8125 C-16.64528973 10.47334943 -24.5282463 16.6046344 -32.75 24.8125 C-33.389375 25.44027344 -34.02875 26.06804687 -34.6875 26.71484375 C-45.57030902 38.20495238 -49.90224029 52.08678755 -50.1875 67.5625 C-50.20997803 68.35479004 -50.23245605 69.14708008 -50.25561523 69.96337891 C-50.22933299 76.40455154 -48.56157513 81.64397864 -44.23657227 86.51806641 C-42.82635475 87.97490149 -42.82635475 87.97490149 -40.8046875 88.1328125 C-33.18082936 87.44967109 -28.34535382 83.98955065 -23.39794922 78.24169922 C-18.0714614 71.85912841 -18.0714614 71.85912841 -13.75 64.8125 C-12.1 64.8125 -10.45 64.8125 -8.75 64.8125 C-9.61098868 74.04729799 -17.18041267 83.1861359 -23.8828125 89.37890625 C-29.89778456 93.99709609 -35.82382986 96.67518542 -43.4921875 96.23046875 C-48.29446661 95.34146552 -50.90120636 92.93330087 -53.7734375 89.140625 C-55.88944134 85.57770944 -57.06034131 82.182378 -58 78.1875 C-58.16765869 77.48455811 -58.33531738 76.78161621 -58.50805664 76.05737305 C-62.36006117 58.83399745 -57.48361805 43.64763005 -48.75 28.8125 C-46.6338865 25.57029506 -44.35125378 22.67611199 -41.75 19.8125 C-41.10804688 19.07902344 -40.46609375 18.34554687 -39.8046875 17.58984375 C-30.86685143 7.97589831 -13.87925932 -5.99331652 0 0 Z " fill="#F7F7F7" transform="translate(454.75,125.1875)"/>
<path d="M0 0 C0.495 1.98 0.495 1.98 1 4 C-2.90575138 5.4418428 -6.63817843 6.31340795 -10.75952148 6.88549805 C-25.36867963 8.9710755 -40.05258242 14.38706439 -49.71484375 26.07421875 C-52.46642982 30.07583283 -53.62162923 33.02696617 -53 38 C-52.39414062 38.17015625 -51.78828125 38.3403125 -51.1640625 38.515625 C-48.42996878 39.30640903 -45.71454167 40.14453052 -43 41 C-42.12730469 41.26683594 -41.25460937 41.53367188 -40.35546875 41.80859375 C-33.32527879 44.23838291 -28.37374724 48.25250552 -25 55 C-23.98426372 65.77451897 -24.89537562 73.71922261 -31 83 C-31.40605469 83.62519531 -31.81210937 84.25039062 -32.23046875 84.89453125 C-36.77755931 91.02456801 -44.64070793 95.28152003 -52 97 C-60.07429952 98.10490414 -66.29658034 96.65351628 -73 92 C-79.20910352 86.61877695 -82.73391281 79.04266812 -84 71 C-84.13788169 68.9821545 -84.21932008 66.95981811 -84.25 64.9375 C-84.27578125 63.91527344 -84.3015625 62.89304688 -84.328125 61.83984375 C-83.9606695 58.65960391 -83.12806586 57.33527227 -81 55 C-79.68 55.33 -78.36 55.66 -77 56 C-76.82984375 57.0621875 -76.6596875 58.124375 -76.484375 59.21875 C-74.77611044 69.38064165 -73.32647541 77.9545208 -65 85 C-59.62185816 86.79271395 -54.18953162 86.84599201 -48.9375 84.5625 C-43.0874579 81.26818772 -38.53148558 75.99915927 -35.5 70.0625 C-34.38994952 63.52135893 -34.38994952 63.52135893 -35 57 C-39.19189997 52.67886997 -44.62511844 50.88567774 -50.1171875 48.73242188 C-54.67630845 46.85285975 -57.76396551 44.86730636 -61 41 C-62.5607521 36.31774371 -62.99105794 31.65461948 -61.234375 26.94921875 C-53.4000267 13.18393776 -38.09125014 5.89124212 -23.5 1.5 C-15.63774653 -0.41312038 -8.0255149 -0.37965642 0 0 Z " fill="#F6F6F6" transform="translate(538,123)"/>
<path d="M0 0 C1.32 0.33 2.64 0.66 4 1 C3.40075562 6.33411902 1.6250424 10.66482024 -0.5625 15.5 C-0.87251953 16.21414062 -1.18253906 16.92828125 -1.50195312 17.6640625 C-7.56182872 31.22495369 -15.81115312 43.53925996 -24.05273438 55.83984375 C-25.73998982 58.36004809 -27.41731549 60.88665098 -29.09375 63.4140625 C-36.06162456 73.87470929 -43.32478445 84.04710912 -51 94 C-51.48968262 94.63505966 -51.97936523 95.27011932 -52.48388672 95.92442322 C-58.63938759 103.89172058 -64.99059908 111.66365155 -71.546875 119.30419922 C-73.10895278 121.12714818 -74.66416106 122.95581789 -76.21875 124.78515625 C-77.29148142 126.04442866 -78.3643939 127.30354687 -79.4375 128.5625 C-79.9337085 129.14644531 -80.42991699 129.73039063 -80.94116211 130.33203125 C-86.36995583 136.6793728 -86.36995583 136.6793728 -89 139 C-91.25 138.75 -91.25 138.75 -93 138 C-92.46094224 134.315246 -91.64177031 132.09191942 -89.296875 129.20703125 C-88.73524658 128.50360596 -88.17361816 127.80018066 -87.5949707 127.07543945 C-86.98613037 126.32866943 -86.37729004 125.58189941 -85.75 124.8125 C-84.46484261 123.19998964 -83.18235699 121.58534682 -81.90234375 119.96875 C-81.24991699 119.14503906 -80.59749023 118.32132812 -79.92529297 117.47265625 C-75.80757613 112.18426719 -71.95089604 106.70600897 -68.0546875 101.25390625 C-66.21298107 98.67677634 -64.35290722 96.11856809 -62.4453125 93.58984375 C-48.84557633 75.52786055 -36.40872949 56.4352086 -24.9375 36.9609375 C-21.43085109 31.00989057 -17.82108963 25.12420662 -14.1875 19.25 C-13.57672607 18.2492041 -12.96595215 17.2484082 -12.33666992 16.21728516 C-8.67781252 10.32387036 -4.7640397 5.04695288 0 0 Z " fill="#F7F7F7" transform="translate(631,73)"/>
<path d="M0 0 C0.495 2.475 0.495 2.475 1 5 C-0.54107422 5.70962891 -0.54107422 5.70962891 -2.11328125 6.43359375 C-22.01954856 15.83511375 -36.71439827 29.96341796 -44.33544922 50.8762207 C-48.08064102 62.14068993 -49.09602971 73.94526484 -44.265625 85.08203125 C-42.76656998 87.35374735 -41.32658588 88.59610188 -39 90 C-32.43315942 90.12876158 -27.81634826 87.1595735 -23 83 C-18.67135351 78.28941412 -14.66775288 73.34378273 -10.95703125 68.12890625 C-10.31121094 67.42636719 -9.66539062 66.72382813 -9 66 C-7.68 66 -6.36 66 -5 66 C-6.07921941 76.26018457 -14.49681745 86.21667998 -22 93 C-28.00581169 97.33639963 -33.83769749 98.89410166 -41.23046875 98.54296875 C-45.7576507 97.65541122 -48.24363755 95.62110361 -51 92 C-57.63195289 82.02068918 -58.38200364 69.49716299 -56.5 57.92578125 C-55.78874847 54.89892104 -54.94008667 51.96372706 -54 49 C-53.64808594 47.85402344 -53.29617187 46.70804688 -52.93359375 45.52734375 C-47.26193786 28.32519271 -36.42511945 14.60289299 -21 5 C-14.05250205 1.55841537 -7.7869346 -0.76342496 0 0 Z " fill="#F8F8F8" transform="translate(227,124)"/>
<path d="M0 0 C3.12845959 0.36312837 5.15783517 1.61427326 7.64453125 3.4765625 C8.66063477 4.23646484 8.66063477 4.23646484 9.69726562 5.01171875 C10.39529297 5.54410156 11.09332031 6.07648438 11.8125 6.625 C12.49892578 7.13417969 13.18535156 7.64335938 13.89257812 8.16796875 C18.090737 11.33743969 21.86235079 14.70346357 25.50024414 18.50366211 C27.1008493 20.17437646 27.1008493 20.17437646 29.625 21.9375 C33.63512069 25.41997323 36.40460503 29.200755 37.5234375 34.4609375 C37.89487501 40.2093752 36.62700044 43.67632158 32.8828125 48.00390625 C31.95082031 48.99197266 31.95082031 48.99197266 31 50 C30.35804688 50.73089844 29.71609375 51.46179688 29.0546875 52.21484375 C20.86787575 61.05116271 10.82895232 67.4366153 -1 70 C-1.66 69.34 -2.32 68.68 -3 68 C-3 65 -3 65 -1.70703125 63.52734375 C-1.08183594 63.00269531 -0.45664062 62.47804687 0.1875 61.9375 C0.91195312 61.3290625 1.63640625 60.720625 2.3828125 60.09375 C5.9710502 57.22315984 9.6123401 54.42527967 13.265625 51.63818359 C22.32316276 45.57112471 22.32316276 45.57112471 27.3671875 36.63671875 C25.8697895 25.88412674 9.68463077 14.16902264 1.59375 7.5703125 C-0.15096542 5.85125466 -1.03228451 4.23542277 -2 2 C-1.34 1.34 -0.68 0.68 0 0 Z " fill="#F8F8F8" transform="translate(623,119)"/>
</svg>
